<?xml version="1.0" standalone="no"?>
<!DOCTYPE svg PUBLIC "-//W3C//DTD SVG 20010904//EN"
 "http://www.w3.org/TR/2001/REC-SVG-20010904/DTD/svg10.dtd">
<svg version="1.0" xmlns="http://www.w3.org/2000/svg"
 width="512.000000pt" height="512.000000pt" viewBox="0 0 512.000000 512.000000"
 preserveAspectRatio="xMidYMid meet">
<metadata>
Created by potrace 1.14, written by Peter Selinger 2001-2017
</metadata>
<g transform="translate(0.000000,512.000000) scale(0.100000,-0.100000)"
fill="#000000" stroke="none">
<path d="M2290 5106 c-752 -87 -1403 -474 -1835 -1091 -234 -335 -375 -704
-436 -1145 -17 -122 -18 -496 -1 -615 83 -586 315 -1070 707 -1474 651 -670
1611 -932 2510 -686 435 119 807 337 1130 660 209 209 364 424 490 680 399
816 337 1783 -164 2536 -412 619 -1038 1014 -1786 1125 -140 21 -472 26 -615
10z m500 -1078 c0 -7 -16 -64 -35 -127 -19 -62 -35 -120 -35 -127 0 -12 109
-14 666 -14 630 0 666 -1 662 -17 -3 -10 -47 -168 -98 -350 l-93 -333 -676 -2
-675 -3 -42 -145 c-24 -80 -43 -148 -44 -152 0 -5 302 -8 671 -8 l671 0 -6
-34 c-6 -31 -78 -292 -121 -438 l-16 -58 -681 -2 -681 -3 -48 -165 c-26 -91
-65 -226 -87 -300 -22 -74 -72 -247 -112 -385 -40 -137 -76 -258 -82 -267 -8
-17 -39 -18 -433 -18 -234 0 -425 3 -425 8 0 4 11 45 25 92 14 47 88 299 164
560 l139 475 -109 3 c-88 2 -109 6 -109 17 0 8 14 63 31 122 17 60 37 133 45
163 8 30 24 87 35 125 11 39 23 78 25 88 5 15 20 17 123 17 l118 0 45 153 46
152 -120 3 c-107 2 -119 4 -114 20 3 9 42 148 86 307 45 160 87 308 94 330
l13 40 124 3 124 3 40 139 40 140 428 0 c335 0 427 -3 427 -12z"/>
</g>
</svg>
