<!DOCTYPE svg PUBLIC "-//W3C//DTD SVG 1.1//EN" "http://www.w3.org/Graphics/SVG/1.1/DTD/svg11.dtd">
<svg xmlns="http://www.w3.org/2000/svg" version="1.1" viewBox="0 0 1448 1448">
<path fill="#f26722" d="
  M 715.56 0.00
  L 733.81 0.00
  Q 742.69 0.38 751.56 0.71
  C 1031.29 11.27 1277.82 182.09 1388.77 438.36
  C 1477.06 642.28 1464.55 882.59 1355.60 1076.19
  C 1248.86 1265.86 1062.22 1400.18 846.85 1436.69
  C 658.82 1468.56 467.84 1426.54 311.12 1318.07
  C 117.50 1184.06 2.00 963.60 0.04 728.44
  L 0.00 721.19
  C 1.14 585.11 38.55 452.05 111.55 337.55
  C 244.24 129.45 468.17 3.75 715.56 0.00
  Z
  M 441.35 432.21
  L 441.26 432.25
  A 0.40 0.29 -85.9 0 0 441.04 432.51
  Q 438.11 443.21 434.62 453.73
  C 433.58 456.87 433.18 460.69 432.35 463.32
  Q 427.83 477.60 426.77 481.26
  C 426.36 482.66 426.57 484.26 426.09 485.78
  C 423.33 494.51 420.97 502.11 418.54 512.00
  Q 417.19 517.48 415.22 522.78
  C 413.47 527.48 413.01 532.54 411.48 537.30
  Q 408.62 546.24 406.04 555.27
  C 405.63 556.71 405.68 558.23 405.25 559.58
  C 403.12 566.25 400.22 573.95 399.36 580.87
  A 1.01 1.00 -86.4 0 0 400.35 582.00
  L 464.96 582.00
  A 1.00 1.00 0.0 0 1 465.88 583.38
  C 465.27 584.86 465.64 586.64 465.05 588.21
  C 461.58 597.57 459.41 607.21 456.28 616.64
  C 453.69 624.43 451.87 632.57 449.40 640.11
  C 448.03 644.30 445.86 649.13 445.51 653.54
  Q 445.44 654.37 445.26 654.93
  Q 442.74 662.46 440.07 670.64
  A 1.01 1.01 0.0 0 1 439.11 671.33
  L 397.69 671.04
  A 0.80 0.80 0.0 0 0 397.09 671.31
  C 396.89 671.52 375.81 671.38 374.24 671.44
  A 1.00 1.00 0.0 0 0 373.33 672.14
  Q 369.84 683.03 366.62 694.01
  C 366.28 695.18 366.70 696.28 366.29 697.49
  Q 362.74 708.03 359.83 718.77
  C 359.50 719.98 359.58 721.28 359.24 722.37
  Q 355.99 732.79 352.88 743.26
  C 352.53 744.43 352.94 745.50 352.53 746.73
  Q 348.69 758.21 346.66 765.68
  C 346.31 766.98 346.65 768.29 346.16 769.71
  Q 341.93 782.07 340.17 789.43
  Q 337.82 799.33 335.64 806.00
  C 334.36 809.89 334.02 814.62 332.26 818.59
  A 1.00 1.00 0.0 0 0 333.17 820.00
  L 394.51 820.00
  A 1.00 1.00 0.0 0 1 395.43 821.38
  C 393.49 826.08 392.79 831.46 391.47 835.60
  C 389.85 840.68 387.44 846.24 386.75 851.50
  Q 386.38 854.38 385.76 855.96
  Q 383.14 862.59 379.82 875.77
  Q 378.96 879.17 374.83 891.48
  C 374.14 893.52 374.14 896.08 373.51 898.01
  Q 370.31 907.76 367.14 917.53
  C 366.61 919.14 366.76 921.24 366.31 922.56
  Q 363.01 932.46 359.96 942.44
  C 359.44 944.14 359.61 945.80 359.04 947.38
  Q 356.10 955.41 353.96 963.67
  C 351.62 972.73 348.22 981.68 346.18 990.98
  Q 345.58 993.73 341.41 1006.11
  C 340.98 1007.40 341.09 1009.35 340.66 1010.65
  Q 337.40 1020.69 334.19 1030.75
  C 333.40 1033.21 333.28 1037.28 332.44 1039.19
  C 329.02 1046.90 327.19 1056.70 325.28 1062.79
  Q 322.99 1070.07 320.57 1077.32
  C 320.26 1078.26 320.67 1079.87 320.19 1081.12
  C 316.50 1090.83 314.13 1101.59 311.15 1110.72
  C 308.15 1119.87 305.73 1129.31 303.10 1138.59
  C 302.17 1141.87 304.10 1141.48 306.22 1141.49
  Q 424.08 1141.52 541.94 1141.49
  C 545.41 1141.49 544.93 1140.21 545.72 1137.82
  Q 549.24 1127.20 552.29 1116.44
  C 556.56 1101.35 561.24 1086.36 565.46 1071.24
  Q 565.58 1070.83 566.17 1069.30
  C 566.78 1067.69 566.76 1065.75 567.28 1064.31
  C 570.44 1055.52 572.28 1046.44 575.28 1037.66
  C 577.67 1030.68 579.43 1022.43 581.29 1016.45
  C 590.41 987.14 598.67 957.48 607.29 928.01
  Q 610.71 916.30 612.24 911.75
  C 612.75 910.26 612.62 908.22 613.24 906.50
  Q 616.48 897.63 618.74 888.49
  C 620.13 882.88 622.19 877.45 623.71 871.83
  C 628.33 854.70 633.65 837.77 638.57 820.72
  A 1.00 1.00 0.0 0 1 639.53 820.00
  L 1022.92 820.00
  A 1.01 1.00 8.6 0 0 1023.88 819.30
  C 1026.63 810.62 1028.58 801.77 1031.27 793.11
  C 1035.13 780.64 1038.19 768.05 1041.56 756.51
  Q 1041.88 755.39 1043.59 749.21
  L 1064.78 672.77
  A 1.01 1.00 7.7 0 0 1063.81 671.50
  L 684.55 671.50
  A 1.00 1.00 0.0 0 1 683.64 670.10
  Q 684.71 667.66 685.18 665.07
  C 686.39 658.36 689.02 651.97 690.87 645.41
  C 696.78 624.47 703.10 603.65 709.08 582.73
  A 1.01 1.01 0.0 0 1 710.05 582.00
  L 1089.75 582.00
  A 1.00 1.00 0.0 0 0 1090.69 581.34
  C 1093.37 573.94 1094.88 565.94 1097.17 558.84
  C 1099.59 551.33 1101.48 542.84 1103.51 536.12
  Q 1105.92 528.13 1108.27 520.11
  C 1108.61 518.95 1108.35 517.81 1108.79 516.56
  C 1112.35 506.52 1114.52 496.15 1117.63 486.14
  C 1119.22 481.03 1120.68 476.00 1121.82 470.77
  Q 1122.36 468.28 1123.61 464.96
  Q 1125.32 460.37 1128.87 446.17
  C 1131.28 436.55 1134.14 426.35 1137.03 417.10
  C 1139.23 410.05 1140.80 402.65 1142.87 395.83
  Q 1144.21 391.42 1145.52 386.98
  Q 1146.18 384.75 1143.75 384.75
  L 768.48 384.75
  A 1.00 1.00 0.0 0 1 767.53 383.45
  C 772.25 368.38 776.14 353.08 780.92 338.05
  C 783.18 330.94 784.80 323.76 787.17 316.65
  Q 788.59 312.36 789.83 308.01
  Q 790.47 305.75 788.00 305.75
  L 548.40 305.75
  A 1.00 0.99 13.9 0 0 547.52 306.28
  C 545.61 309.84 545.19 314.53 544.26 317.38
  Q 542.52 322.74 540.79 328.10
  C 539.23 332.93 538.24 339.40 536.16 344.86
  C 532.89 353.47 531.30 362.42 528.29 371.10
  Q 527.59 373.11 526.94 377.02
  Q 526.32 380.78 524.54 384.20
  A 1.00 1.00 0.0 0 1 523.65 384.74
  Q 489.60 384.76 455.54 385.18
  C 452.88 385.21 453.62 387.75 453.15 389.30
  C 449.64 400.96 446.80 408.39 445.72 414.71
  C 444.87 419.73 443.09 424.44 441.48 429.24
  Q 441.00 430.67 441.41 432.09
  A 0.09 0.09 0.0 0 1 441.35 432.21
  Z"
/>
<path fill="#ffffff" d="
  M 441.41 432.09
  Q 441.00 430.67 441.48 429.24
  C 443.09 424.44 444.87 419.73 445.72 414.71
  C 446.80 408.39 449.64 400.96 453.15 389.30
  C 453.62 387.75 452.88 385.21 455.54 385.18
  Q 489.60 384.76 523.65 384.74
  A 1.00 1.00 0.0 0 0 524.54 384.20
  Q 526.32 380.78 526.94 377.02
  Q 527.59 373.11 528.29 371.10
  C 531.30 362.42 532.89 353.47 536.16 344.86
  C 538.24 339.40 539.23 332.93 540.79 328.10
  Q 542.52 322.74 544.26 317.38
  C 545.19 314.53 545.61 309.84 547.52 306.28
  A 1.00 0.99 13.9 0 1 548.40 305.75
  L 788.00 305.75
  Q 790.47 305.75 789.83 308.01
  Q 788.59 312.36 787.17 316.65
  C 784.80 323.76 783.18 330.94 780.92 338.05
  C 776.14 353.08 772.25 368.38 767.53 383.45
  A 1.00 1.00 0.0 0 0 768.48 384.75
  L 1143.75 384.75
  Q 1146.18 384.75 1145.52 386.98
  Q 1144.21 391.42 1142.87 395.83
  C 1140.80 402.65 1139.23 410.05 1137.03 417.10
  C 1134.14 426.35 1131.28 436.55 1128.87 446.17
  Q 1125.32 460.37 1123.61 464.96
  Q 1122.36 468.28 1121.82 470.77
  C 1120.68 476.00 1119.22 481.03 1117.63 486.14
  C 1114.52 496.15 1112.35 506.52 1108.79 516.56
  C 1108.35 517.81 1108.61 518.95 1108.27 520.11
  Q 1105.92 528.13 1103.51 536.12
  C 1101.48 542.84 1099.59 551.33 1097.17 558.84
  C 1094.88 565.94 1093.37 573.94 1090.69 581.34
  A 1.00 1.00 0.0 0 1 1089.75 582.00
  L 710.05 582.00
  A 1.01 1.01 0.0 0 0 709.08 582.73
  C 703.10 603.65 696.78 624.47 690.87 645.41
  C 689.02 651.97 686.39 658.36 685.18 665.07
  Q 684.71 667.66 683.64 670.10
  A 1.00 1.00 0.0 0 0 684.55 671.50
  L 1063.81 671.50
  A 1.01 1.00 7.7 0 1 1064.78 672.77
  L 1043.59 749.21
  Q 1041.88 755.39 1041.56 756.51
  C 1038.19 768.05 1035.13 780.64 1031.27 793.11
  C 1028.58 801.77 1026.63 810.62 1023.88 819.30
  A 1.01 1.00 8.6 0 1 1022.92 820.00
  L 639.53 820.00
  A 1.00 1.00 0.0 0 0 638.57 820.72
  C 633.65 837.77 628.33 854.70 623.71 871.83
  C 622.19 877.45 620.13 882.88 618.74 888.49
  Q 616.48 897.63 613.24 906.50
  C 612.62 908.22 612.75 910.26 612.24 911.75
  Q 610.71 916.30 607.29 928.01
  C 598.67 957.48 590.41 987.14 581.29 1016.45
  C 579.43 1022.43 577.67 1030.68 575.28 1037.66
  C 572.28 1046.44 570.44 1055.52 567.28 1064.31
  C 566.76 1065.75 566.78 1067.69 566.17 1069.30
  Q 565.58 1070.83 565.46 1071.24
  C 561.24 1086.36 556.56 1101.35 552.29 1116.44
  Q 549.24 1127.20 545.72 1137.82
  C 544.93 1140.21 545.41 1141.49 541.94 1141.49
  Q 424.08 1141.52 306.22 1141.49
  C 304.10 1141.48 302.17 1141.87 303.10 1138.59
  C 305.73 1129.31 308.15 1119.87 311.15 1110.72
  C 314.13 1101.59 316.50 1090.83 320.19 1081.12
  C 320.67 1079.87 320.26 1078.26 320.57 1077.32
  Q 322.99 1070.07 325.28 1062.79
  C 327.19 1056.70 329.02 1046.90 332.44 1039.19
  C 333.28 1037.28 333.40 1033.21 334.19 1030.75
  Q 337.40 1020.69 340.66 1010.65
  C 341.09 1009.35 340.98 1007.40 341.41 1006.11
  Q 345.58 993.73 346.18 990.98
  C 348.22 981.68 351.62 972.73 353.96 963.67
  Q 356.10 955.41 359.04 947.38
  C 359.61 945.80 359.44 944.14 359.96 942.44
  Q 363.01 932.46 366.31 922.56
  C 366.76 921.24 366.61 919.14 367.14 917.53
  Q 370.31 907.76 373.51 898.01
  C 374.14 896.08 374.14 893.52 374.83 891.48
  Q 378.96 879.17 379.82 875.77
  Q 383.14 862.59 385.76 855.96
  Q 386.38 854.38 386.75 851.50
  C 387.44 846.24 389.85 840.68 391.47 835.60
  C 392.79 831.46 393.49 826.08 395.43 821.38
  A 1.00 1.00 0.0 0 0 394.51 820.00
  L 333.17 820.00
  A 1.00 1.00 0.0 0 1 332.26 818.59
  C 334.02 814.62 334.36 809.89 335.64 806.00
  Q 337.82 799.33 340.17 789.43
  Q 341.93 782.07 346.16 769.71
  C 346.65 768.29 346.31 766.98 346.66 765.68
  Q 348.69 758.21 352.53 746.73
  C 352.94 745.50 352.53 744.43 352.88 743.26
  Q 355.99 732.79 359.24 722.37
  C 359.58 721.28 359.50 719.98 359.83 718.77
  Q 362.74 708.03 366.29 697.49
  C 366.70 696.28 366.28 695.18 366.62 694.01
  Q 369.84 683.03 373.33 672.14
  A 1.00 1.00 0.0 0 1 374.24 671.44
  C 375.81 671.38 396.89 671.52 397.09 671.31
  A 0.80 0.80 0.0 0 1 397.69 671.04
  L 439.11 671.33
  A 1.01 1.01 0.0 0 0 440.07 670.64
  Q 442.74 662.46 445.26 654.93
  Q 445.44 654.37 445.51 653.54
  C 445.86 649.13 448.03 644.30 449.40 640.11
  C 451.87 632.57 453.69 624.43 456.28 616.64
  C 459.41 607.21 461.58 597.57 465.05 588.21
  C 465.64 586.64 465.27 584.86 465.88 583.38
  A 1.00 1.00 0.0 0 0 464.96 582.00
  L 400.35 582.00
  A 1.01 1.00 -86.4 0 1 399.36 580.87
  C 400.22 573.95 403.12 566.25 405.25 559.58
  C 405.68 558.23 405.63 556.71 406.04 555.27
  Q 408.62 546.24 411.48 537.30
  C 413.01 532.54 413.47 527.48 415.22 522.78
  Q 417.19 517.48 418.54 512.00
  C 420.97 502.11 423.33 494.51 426.09 485.78
  C 426.57 484.26 426.36 482.66 426.77 481.26
  Q 427.83 477.60 432.35 463.32
  C 433.18 460.69 433.58 456.87 434.62 453.73
  Q 438.11 443.21 441.04 432.51
  A 0.40 0.29 -85.9 0 1 441.26 432.25
  L 441.35 432.21
  A 0.09 0.09 0.0 0 0 441.41 432.09
  Z"
/>
</svg>
